<svg width="1920" height="1004" viewBox="0 0 1920 1004" fill="none" xmlns="http://www.w3.org/2000/svg">
<mask id="mask0_1_3979" style="mask-type:alpha" maskUnits="userSpaceOnUse" x="0" y="0" width="1920" height="1004">
<path d="M0 0H1920V1004H0V0Z" fill="#5236FF"/>
</mask>
<g mask="url(#mask0_1_3979)">
<path d="M453.5 -133.846C453.5 261.398 132.266 581.809 -264 581.809C-660.266 581.809 -981.5 261.398 -981.5 -133.846C-981.5 -529.089 -660.266 -849.5 -264 -849.5C132.266 -849.5 453.5 -529.089 453.5 -133.846Z" stroke="#735DFD"/>
<path d="M3075.5 895.869C3075.5 1352.26 2704.57 1722.24 2247 1722.24C1789.43 1722.24 1418.5 1352.26 1418.5 895.869C1418.5 439.479 1789.43 69.5 2247 69.5C2704.57 69.5 3075.5 439.479 3075.5 895.869Z" stroke="#735DFD"/>
<path d="M2825.5 895.867C2825.5 1214.54 2566.5 1472.88 2247 1472.88C1927.5 1472.88 1668.5 1214.54 1668.5 895.867C1668.5 577.194 1927.5 318.856 2247 318.856C2566.5 318.856 2825.5 577.194 2825.5 895.867Z" stroke="#735DFD"/>
</g>
</svg>
