<svg width="1359" height="706" viewBox="0 0 1359 706" fill="none" xmlns="http://www.w3.org/2000/svg">
<path d="M63.8237 93.9472C36.8178 54.1064 65.3578 0.281738 113.489 0.281738H1386.33V705.282H658.496C545.743 705.282 440.324 649.384 377.06 556.052L63.8237 93.9472Z" fill="#F9F8FF"/>
<path d="M63.8237 93.9472C36.8178 54.1064 65.3578 0.281738 113.489 0.281738H1386.33V705.282H658.496C545.743 705.282 440.324 649.384 377.06 556.052L63.8237 93.9472Z" fill="url(#paint0_linear_1_4514)"/>
<mask id="mask0_1_4514" style="mask-type:alpha" maskUnits="userSpaceOnUse" x="53" y="0" width="1334" height="706">
<path d="M63.8237 93.9472C36.8178 54.1064 65.3578 0.281738 113.489 0.281738H1386.33V705.282H658.496C545.743 705.282 440.324 649.384 377.06 556.052L63.8237 93.9472Z" fill="#F9F8FF"/>
</mask>
<g mask="url(#mask0_1_4514)">
<ellipse cx="349.646" cy="361.677" rx="349.646" ry="361.677" transform="matrix(0.920144 -0.39158 0.361103 0.932526 379.012 -95.437)" fill="url(#paint1_linear_1_4514)" fill-opacity="0.44" style="mix-blend-mode:multiply"/>
<ellipse cx="326.181" cy="289.821" rx="326.181" ry="289.821" transform="matrix(0.244077 -0.969756 0.959148 0.282903 816.598 1054)" fill="url(#paint2_linear_1_4514)" fill-opacity="0.42" style="mix-blend-mode:multiply"/>
</g>
<defs>
<linearGradient id="paint0_linear_1_4514" x1="292.218" y1="0.281703" x2="1393.44" y2="694.004" gradientUnits="userSpaceOnUse">
<stop stop-color="#684FFF"/>
<stop offset="1" stop-color="#B871FE"/>
</linearGradient>
<linearGradient id="paint1_linear_1_4514" x1="349.646" y1="0" x2="349.646" y2="723.354" gradientUnits="userSpaceOnUse">
<stop stop-color="#684FFF"/>
<stop offset="1" stop-color="#FFF8F0" stop-opacity="0"/>
</linearGradient>
<linearGradient id="paint2_linear_1_4514" x1="326.181" y1="0" x2="326.181" y2="579.642" gradientUnits="userSpaceOnUse">
<stop stop-color="#684FFF"/>
<stop offset="1" stop-color="#FFF8F0" stop-opacity="0"/>
</linearGradient>
</defs>
</svg>
