<svg width="173" height="41" viewBox="0 0 173 41" fill="none" xmlns="http://www.w3.org/2000/svg">
<path d="M74.72 30.27C73.14 30.27 71.67 30.09 70.31 29.73C68.95 29.35 67.84 28.82 66.98 28.14C66.68 27.92 66.46 27.69 66.32 27.45C66.2 27.19 66.14 26.87 66.14 26.49C66.14 25.99 66.29 25.55 66.59 25.17C66.91 24.79 67.27 24.6 67.67 24.6C67.89 24.6 68.1 24.64 68.3 24.72C68.52 24.78 68.78 24.9 69.08 25.08C69.94 25.62 70.81 26.02 71.69 26.28C72.57 26.52 73.54 26.64 74.6 26.64C75.92 26.64 76.93 26.42 77.63 25.98C78.33 25.54 78.68 24.91 78.68 24.09C78.68 23.47 78.35 22.97 77.69 22.59C77.05 22.21 75.9 21.85 74.24 21.51C72.38 21.13 70.89 20.67 69.77 20.13C68.67 19.59 67.86 18.92 67.34 18.12C66.84 17.32 66.59 16.35 66.59 15.21C66.59 13.95 66.95 12.82 67.67 11.82C68.41 10.8 69.42 10.01 70.7 9.45C72 8.87 73.46 8.58 75.08 8.58C77.92 8.58 80.26 9.29 82.1 10.71C82.4 10.95 82.61 11.2 82.73 11.46C82.87 11.7 82.94 12 82.94 12.36C82.94 12.86 82.78 13.3 82.46 13.68C82.16 14.06 81.81 14.25 81.41 14.25C81.19 14.25 80.98 14.22 80.78 14.16C80.6 14.1 80.34 13.97 80 13.77C79.18 13.25 78.42 12.86 77.72 12.6C77.04 12.34 76.17 12.21 75.11 12.21C73.89 12.21 72.93 12.45 72.23 12.93C71.53 13.39 71.18 14.03 71.18 14.85C71.18 15.33 71.31 15.73 71.57 16.05C71.85 16.35 72.3 16.62 72.92 16.86C73.56 17.1 74.46 17.35 75.62 17.61C78.34 18.21 80.29 18.98 81.47 19.92C82.67 20.86 83.27 22.15 83.27 23.79C83.27 25.07 82.91 26.2 82.19 27.18C81.49 28.16 80.49 28.92 79.19 29.46C77.91 30 76.42 30.27 74.72 30.27ZM92.911 14.91C95.071 14.91 96.671 15.44 97.711 16.5C98.751 17.54 99.271 19.14 99.271 21.3V28.08C99.271 28.74 99.081 29.26 98.701 29.64C98.321 30 97.791 30.18 97.111 30.18C96.471 30.18 95.951 29.99 95.551 29.61C95.171 29.21 94.981 28.7 94.981 28.08V27.87C94.681 28.61 94.181 29.19 93.481 29.61C92.781 30.03 91.961 30.24 91.021 30.24C90.021 30.24 89.111 30.04 88.291 29.64C87.491 29.24 86.851 28.68 86.371 27.96C85.911 27.24 85.681 26.44 85.681 25.56C85.681 24.48 85.951 23.63 86.491 23.01C87.051 22.39 87.941 21.94 89.161 21.66C90.381 21.38 92.051 21.24 94.171 21.24H94.951V20.7C94.951 19.86 94.761 19.25 94.381 18.87C94.021 18.49 93.411 18.3 92.551 18.3C91.691 18.3 90.451 18.6 88.831 19.2C88.371 19.42 87.981 19.53 87.661 19.53C87.221 19.53 86.871 19.38 86.611 19.08C86.351 18.76 86.221 18.35 86.221 17.85C86.221 17.45 86.311 17.12 86.491 16.86C86.671 16.6 86.961 16.36 87.361 16.14C88.061 15.76 88.911 15.46 89.911 15.24C90.931 15.02 91.931 14.91 92.911 14.91ZM92.011 27.12C92.891 27.12 93.601 26.83 94.141 26.25C94.681 25.65 94.951 24.88 94.951 23.94V23.43H94.441C92.821 23.43 91.681 23.56 91.021 23.82C90.381 24.08 90.061 24.55 90.061 25.23C90.061 25.79 90.241 26.25 90.601 26.61C90.981 26.95 91.451 27.12 92.011 27.12ZM109.288 14.91C111.448 14.91 113.048 15.44 114.088 16.5C115.128 17.54 115.648 19.14 115.648 21.3V28.08C115.648 28.74 115.458 29.26 115.078 29.64C114.698 30 114.168 30.18 113.488 30.18C112.848 30.18 112.328 29.99 111.928 29.61C111.548 29.21 111.358 28.7 111.358 28.08V27.87C111.058 28.61 110.558 29.19 109.858 29.61C109.158 30.03 108.338 30.24 107.398 30.24C106.398 30.24 105.488 30.04 104.668 29.64C103.868 29.24 103.228 28.68 102.748 27.96C102.288 27.24 102.058 26.44 102.058 25.56C102.058 24.48 102.328 23.63 102.868 23.01C103.428 22.39 104.318 21.94 105.538 21.66C106.758 21.38 108.428 21.24 110.548 21.24H111.328V20.7C111.328 19.86 111.138 19.25 110.758 18.87C110.398 18.49 109.788 18.3 108.928 18.3C108.068 18.3 106.828 18.6 105.208 19.2C104.748 19.42 104.358 19.53 104.038 19.53C103.598 19.53 103.248 19.38 102.988 19.08C102.728 18.76 102.598 18.35 102.598 17.85C102.598 17.45 102.688 17.12 102.868 16.86C103.048 16.6 103.338 16.36 103.738 16.14C104.438 15.76 105.288 15.46 106.288 15.24C107.308 15.02 108.308 14.91 109.288 14.91ZM108.388 27.12C109.268 27.12 109.978 26.83 110.518 26.25C111.058 25.65 111.328 24.88 111.328 23.94V23.43H110.818C109.198 23.43 108.058 23.56 107.398 23.82C106.758 24.08 106.438 24.55 106.438 25.23C106.438 25.79 106.618 26.25 106.978 26.61C107.358 26.95 107.828 27.12 108.388 27.12ZM150.486 14.97C151.186 14.97 151.736 15.16 152.136 15.54C152.556 15.92 152.766 16.44 152.766 17.1V28.11C152.766 28.73 152.546 29.23 152.106 29.61C151.686 29.99 151.136 30.18 150.456 30.18C149.816 30.18 149.306 30 148.926 29.64C148.546 29.28 148.356 28.8 148.356 28.2V27.9C147.896 28.66 147.286 29.24 146.526 29.64C145.786 30.04 144.946 30.24 144.006 30.24C142.146 30.24 140.756 29.73 139.836 28.71C138.936 27.67 138.486 26.11 138.486 24.03V17.1C138.486 16.44 138.686 15.92 139.086 15.54C139.506 15.16 140.066 14.97 140.766 14.97C141.466 14.97 142.016 15.16 142.416 15.54C142.816 15.92 143.016 16.44 143.016 17.1V24.12C143.016 25 143.196 25.65 143.556 26.07C143.936 26.49 144.506 26.7 145.266 26.7C146.146 26.7 146.856 26.4 147.396 25.8C147.956 25.2 148.236 24.41 148.236 23.43V17.1C148.236 16.44 148.436 15.92 148.836 15.54C149.236 15.16 149.786 14.97 150.486 14.97ZM165.362 14.91C166.622 14.91 167.742 15.24 168.722 15.9C169.722 16.54 170.492 17.45 171.032 18.63C171.592 19.79 171.872 21.13 171.872 22.65C171.872 24.17 171.592 25.51 171.032 26.67C170.492 27.81 169.732 28.69 168.752 29.31C167.772 29.93 166.642 30.24 165.362 30.24C164.362 30.24 163.452 30.04 162.632 29.64C161.832 29.22 161.212 28.64 160.772 27.9V33.57C160.772 34.17 160.572 34.65 160.172 35.01C159.772 35.37 159.242 35.55 158.582 35.55C157.882 35.55 157.312 35.36 156.872 34.98C156.452 34.6 156.242 34.1 156.242 33.48V17.1C156.242 16.46 156.442 15.95 156.842 15.57C157.262 15.17 157.812 14.97 158.492 14.97C159.172 14.97 159.712 15.17 160.112 15.57C160.512 15.95 160.712 16.46 160.712 17.1V17.34C161.152 16.58 161.782 15.99 162.602 15.57C163.422 15.13 164.342 14.91 165.362 14.91ZM164.042 26.79C165.102 26.79 165.922 26.44 166.502 25.74C167.082 25.02 167.372 23.99 167.372 22.65C167.372 21.29 167.082 20.24 166.502 19.5C165.922 18.74 165.102 18.36 164.042 18.36C162.982 18.36 162.162 18.73 161.582 19.47C161.002 20.19 160.712 21.23 160.712 22.59C160.712 23.93 161.002 24.97 161.582 25.71C162.162 26.43 162.982 26.79 164.042 26.79Z" fill="#242331"/>
<path d="M127.015 30.27C125.435 30.27 123.965 30.09 122.605 29.73C121.245 29.35 120.135 28.82 119.275 28.14C118.975 27.92 118.755 27.69 118.615 27.45C118.495 27.19 118.435 26.87 118.435 26.49C118.435 25.99 118.585 25.55 118.885 25.17C119.205 24.79 119.565 24.6 119.965 24.6C120.185 24.6 120.395 24.64 120.595 24.72C120.815 24.78 121.075 24.9 121.375 25.08C122.235 25.62 123.105 26.02 123.985 26.28C124.865 26.52 125.835 26.64 126.895 26.64C128.215 26.64 129.225 26.42 129.925 25.98C130.625 25.54 130.975 24.91 130.975 24.09C130.975 23.47 130.645 22.97 129.985 22.59C129.345 22.21 128.195 21.85 126.535 21.51C124.675 21.13 123.185 20.67 122.065 20.13C120.965 19.59 120.155 18.92 119.635 18.12C119.135 17.32 118.885 16.35 118.885 15.21C118.885 13.95 119.245 12.82 119.965 11.82C120.705 10.8 121.715 10.01 122.995 9.45C124.295 8.87 125.755 8.58 127.375 8.58C130.215 8.58 132.555 9.29 134.395 10.71C134.695 10.95 134.905 11.2 135.025 11.46C135.165 11.7 135.235 12 135.235 12.36C135.235 12.86 135.075 13.3 134.755 13.68C134.455 14.06 134.105 14.25 133.705 14.25C133.485 14.25 133.275 14.22 133.075 14.16C132.895 14.1 132.635 13.97 132.295 13.77C131.475 13.25 130.715 12.86 130.015 12.6C129.335 12.34 128.465 12.21 127.405 12.21C126.185 12.21 125.225 12.45 124.525 12.93C123.825 13.39 123.475 14.03 123.475 14.85C123.475 15.33 123.605 15.73 123.865 16.05C124.145 16.35 124.595 16.62 125.215 16.86C125.855 17.1 126.755 17.35 127.915 17.61C130.635 18.21 132.585 18.98 133.765 19.92C134.965 20.86 135.565 22.15 135.565 23.79C135.565 25.07 135.205 26.2 134.485 27.18C133.785 28.16 132.785 28.92 131.485 29.46C130.205 30 128.715 30.27 127.015 30.27Z" fill="#242333"/>
<path fill-rule="evenodd" clip-rule="evenodd" d="M48.9936 13.3516C54.4754 14.173 58.679 18.9018 58.679 24.6124C58.679 30.9013 53.5809 35.9995 47.292 35.9995H31.9474C31.9222 35.9996 31.8971 35.9996 31.872 35.9996C31.8468 35.9996 31.8217 35.9996 31.7966 35.9995H11.7074C5.41847 35.9995 0.320312 30.9013 0.320312 24.6124C0.320312 18.3235 5.41848 13.2253 11.7074 13.2253H14.7866C16.9412 5.82376 23.7749 0.415039 31.872 0.415039C40.015 0.415039 46.8803 5.88537 48.9936 13.3516Z" fill="#5236FF"/>
<mask id="mask0_1_4808" style="mask-type:alpha" maskUnits="userSpaceOnUse" x="0" y="0" width="59" height="36">
<path fill-rule="evenodd" clip-rule="evenodd" d="M48.9936 13.3521C54.4754 14.1735 58.679 18.9023 58.679 24.6129C58.679 30.9018 53.5809 36 47.292 36H31.9474C31.9222 36.0001 31.8971 36.0001 31.872 36.0001C31.8468 36.0001 31.8217 36.0001 31.7966 36H11.7074C5.41847 36 0.320312 30.9018 0.320312 24.6129C0.320312 18.324 5.41848 13.2258 11.7074 13.2258H14.7866C16.9412 5.82425 23.7749 0.415527 31.872 0.415527C40.015 0.415527 46.8803 5.88585 48.9936 13.3521Z" fill="#5236FF"/>
</mask>
<g mask="url(#mask0_1_4808)">
<path d="M27.9343 10.7564L-2.05176 40.7446L62.475 40.1758L33.0434 10.6514" fill="#644AFF"/>
</g>
<path d="M30.5408 30.8859C29.4478 30.8859 28.5615 29.9931 28.5615 28.8913V10.9501C28.5619 9.84838 29.4478 8.95557 30.5408 8.95557C31.6338 8.95557 32.5201 9.84838 32.5201 10.9501V28.8913C32.5201 29.9927 31.6341 30.8859 30.5408 30.8859Z" fill="white"/>
<path d="M38.8705 19.3441C39.6433 18.5653 39.6433 17.3022 38.8705 16.5234L31.9403 9.53969C31.1674 8.76086 29.914 8.76086 29.1412 9.53969C28.3683 10.3185 28.3683 11.5816 29.1412 12.3604L36.0714 19.3441C36.8446 20.123 38.0976 20.123 38.8705 19.3441Z" fill="white"/>
<path d="M22.2115 19.3441C21.4386 18.5653 21.4386 17.3022 22.2115 16.5234L29.1417 9.53969C29.9145 8.76086 31.1679 8.76086 31.9408 9.53969C32.7136 10.3185 32.7136 11.5816 31.9408 12.3604L25.0106 19.3441C24.2374 20.123 22.9844 20.123 22.2115 19.3441Z" fill="white"/>
</svg>
